<svg width="96" height="96" viewBox="0 0 96 96" fill="none" xmlns="http://www.w3.org/2000/svg">
  <rect width="96" height="96" rx="24" fill="#08080F"/>
  <path d="M23 47.5C23 34.5213 33.5213 24 46.5 24H49.5C62.4787 24 73 34.5213 73 47.5C73 60.4787 62.4787 71 49.5 71H47.2981C45.2111 71 43.1705 71.6179 41.4347 72.7756L34 77.732V68.2981C27.407 64.0901 23 56.4156 23 47.5Z" fill="url(#paint0_linear)"/>
  <path d="M48.726 58.82C42.174 58.82 37.314 54.14 37.314 47.624C37.314 41.144 42.282 36.392 48.798 36.392C53.118 36.392 56.61 38.3 58.41 41.576L53.514 44.348C52.47 42.692 50.922 41.864 48.87 41.864C45.702 41.864 43.362 44.168 43.362 47.588C43.362 51.116 45.666 53.348 49.194 53.348C51.102 53.348 52.83 52.808 53.91 51.728V50.108H48.582V45.356H59.31V54.212C56.934 57.2 53.262 58.82 48.726 58.82Z" fill="white"/>
  <defs>
    <linearGradient id="paint0_linear" x1="24" y1="25" x2="74" y2="75" gradientUnits="userSpaceOnUse">
      <stop stop-color="#A855F7"/>
      <stop offset="0.5" stop-color="#0EA5E9"/>
      <stop offset="1" stop-color="#14B8A6"/>
    </linearGradient>
  </defs>
</svg>
